<?xml version="1.0" encoding="UTF-8" standalone="no"?>
<svg
   xmlns:dc="http://purl.org/dc/elements/1.1/"
   xmlns:cc="http://creativecommons.org/ns#"
   xmlns:rdf="http://www.w3.org/1999/02/22-rdf-syntax-ns#"
   xmlns:svg="http://www.w3.org/2000/svg"
   xmlns="http://www.w3.org/2000/svg"
   viewBox="0 0 337.86401 230.752"
   height="230.752"
   width="337.86401"
   xml:space="preserve"
   id="svg2"
   version="1.1"><metadata
     id="metadata8"><rdf:RDF><cc:Work
         rdf:about=""><dc:format>image/svg+xml</dc:format><dc:type
           rdf:resource="http://purl.org/dc/dcmitype/StillImage" /></cc:Work></rdf:RDF></metadata><defs
     id="defs6"><clipPath
       id="clipPath18"
       clipPathUnits="userSpaceOnUse"><path
         id="path16"
         d="M 0,173.064 H 253.398 V 0 H 0 Z" /></clipPath></defs><g
     transform="matrix(1.3333333,0,0,-1.3333333,0,230.752)"
     id="g10"><g
       id="g12"><g
         clip-path="url(#clipPath18)"
         id="g14"><g
           transform="translate(249.0042,168.672)"
           id="g20"><path
             id="path22"
             style="fill:rgb(255,255,255);fill-opacity:1;fill-rule:nonzero;stroke:none"
             d="m 0,0 c -5.856,5.856 -15.354,5.856 -21.212,-0.001 l -132.459,-132.459 -69.726,69.727 c -5.858,5.857 -15.355,5.857 -21.214,0 -5.858,-5.857 -5.858,-15.355 0,-21.213 l 80.333,-80.333 c 2.929,-2.929 6.768,-4.393 10.606,-4.393 3.839,0 7.678,1.465 10.607,4.393 L 0,-21.213 C 5.858,-15.356 5.858,-5.858 0,0" /></g></g></g></g></svg>