<?xml version="1.0" encoding="UTF-8" standalone="no"?>
<svg
   xmlns:dc="http://purl.org/dc/elements/1.1/"
   xmlns:cc="http://creativecommons.org/ns#"
   xmlns:rdf="http://www.w3.org/1999/02/22-rdf-syntax-ns#"
   xmlns:svg="http://www.w3.org/2000/svg"
   xmlns="http://www.w3.org/2000/svg"
   viewBox="0 0 21.333332 21.333332"
   height="21.333332"
   width="21.333332"
   xml:space="preserve"
   id="svg2"
   version="1.1"><metadata
     id="metadata8"><rdf:RDF><cc:Work
         rdf:about=""><dc:format>image/svg+xml</dc:format><dc:type
           rdf:resource="http://purl.org/dc/dcmitype/StillImage" /></cc:Work></rdf:RDF></metadata><defs
     id="defs6"><clipPath
       id="clipPath18"
       clipPathUnits="userSpaceOnUse"><path
         id="path16"
         d="M 0,16 H 16 V 0 H 0 Z" /></clipPath></defs><g
     transform="matrix(1.3333333,0,0,-1.3333333,0,21.333333)"
     id="g10"><g
       id="g12"><g
         clip-path="url(#clipPath18)"
         id="g14"><g
           transform="translate(12.333,0.6664)"
           id="g20"><path
             id="path22"
             style="fill:rgb(75,198,227);fill-opacity:1;fill-rule:nonzero;stroke:none"
             d="M 0,0 C -1.654,0 -3,1.346 -3,3 -3,4.654 -1.654,6 0,6 1.654,6 3,4.654 3,3 3,1.346 1.654,0 0,0 m -11,1.334 c -0.368,0 -0.667,0.299 -0.667,0.666 v 8 H 1.667 V 6.262 C 1.166,6.519 0.601,6.667 0,6.667 -2.021,6.667 -3.667,5.022 -3.667,3 c 0,-0.601 0.148,-1.166 0.405,-1.666 z m -0.667,11.333 c 0,0.368 0.299,0.666 0.667,0.666 h 2.667 V 12.667 C -8.701,12.667 -9,12.368 -9,12 c 0,-0.367 0.299,-0.667 0.667,-0.667 0.368,0 0.666,0.3 0.666,0.667 v 1.333 h 6.001 v -0.666 c -0.368,0 -0.667,-0.299 -0.667,-0.667 0,-0.367 0.299,-0.667 0.667,-0.667 0.367,0 0.666,0.3 0.666,0.667 v 1.333 h 2 c 0.368,0 0.667,-0.298 0.667,-0.666 v -2 H -11.667 Z M 2.334,5.826 v 6.841 C 2.334,13.402 1.735,14 1,14 h -2 v 1 c 0,0.185 -0.148,0.333 -0.333,0.333 -0.185,0 -0.333,-0.148 -0.333,-0.333 v -1 h -6.001 v 1 c 0,0.185 -0.148,0.333 -0.333,0.333 -0.184,0 -0.333,-0.148 -0.333,-0.333 V 14 H -11 c -0.735,0 -1.333,-0.598 -1.333,-1.333 V 2 c 0,-0.735 0.598,-1.333 1.333,-1.333 h 8.174 c 0.674,-0.813 1.69,-1.333 2.826,-1.333 2.021,0 3.667,1.645 3.667,3.666 0,1.137 -0.52,2.153 -1.333,2.826" /></g><g
           transform="translate(12.667,3.8051)"
           id="g24"><path
             id="path26"
             style="fill:rgb(75,198,227);fill-opacity:1;fill-rule:nonzero;stroke:none"
             d="m 0,0 v 1.861 c 0,0.185 -0.149,0.334 -0.334,0.334 -0.184,0 -0.333,-0.149 -0.333,-0.334 v -2 c 0,-0.088 0.035,-0.173 0.098,-0.235 l 1,-1 c 0.065,-0.065 0.15,-0.098 0.235,-0.098 0.086,0 0.171,0.033 0.236,0.098 0.13,0.13 0.13,0.341 0,0.472 z" /></g></g></g></g></svg>