<?xml version="1.0" encoding="UTF-8" standalone="no"?>
<svg
   xmlns:dc="http://purl.org/dc/elements/1.1/"
   xmlns:cc="http://creativecommons.org/ns#"
   xmlns:rdf="http://www.w3.org/1999/02/22-rdf-syntax-ns#"
   xmlns:svg="http://www.w3.org/2000/svg"
   xmlns="http://www.w3.org/2000/svg"
   viewBox="0 0 21.333332 32"
   height="32"
   width="21.333332"
   xml:space="preserve"
   id="svg2"
   version="1.1"><metadata
     id="metadata8"><rdf:RDF><cc:Work
         rdf:about=""><dc:format>image/svg+xml</dc:format><dc:type
           rdf:resource="http://purl.org/dc/dcmitype/StillImage" /></cc:Work></rdf:RDF></metadata><defs
     id="defs6"><clipPath
       id="clipPath18"
       clipPathUnits="userSpaceOnUse"><path
         id="path16"
         d="M 0,24 H 16 V 0 H 0 Z" /></clipPath></defs><g
     transform="matrix(1.3333333,0,0,-1.3333333,0,32)"
     id="g10"><g
       id="g12"><g
         clip-path="url(#clipPath18)"
         id="g14"><g
           transform="translate(9.5,21.0829)"
           id="g20"><path
             id="path22"
             style="fill:rgb(75,198,227);fill-opacity:1;fill-rule:nonzero;stroke:none"
             d="M 0,0 H -3 C -3.276,0 -3.5,0.224 -3.5,0.5 -3.5,0.776 -3.276,1 -3,1 H 0 C 0.276,1 0.5,0.776 0.5,0.5 0.5,0.224 0.276,0 0,0 m 4.5,1.917 h -12 c -0.551,0 -1,-0.449 -1,-1 V -1 h 14 v 1.917 c 0,0.551 -0.448,1 -1,1 M 5.5,-2 h -14 v -13 h 14 z m -7,-17 c -0.553,0 -1,0.448 -1,1 0,0.552 0.447,1 1,1 0.552,0 0.999,-0.448 0.999,-1 0,-0.552 -0.447,-1 -0.999,-1 m 7,3 h -14 v -3.083 c 0,-0.552 0.449,-1 1,-1 h 12 c 0.552,0 1,0.448 1,1 z m -1,-5.083 h -12 c -1.104,0 -2,0.896 -2,2 v 20 c 0,1.104 0.896,2 2,2 h 12 c 1.104,0 2,-0.896 2,-2 v -20 c 0,-1.104 -0.896,-2 -2,-2" /></g></g></g></g></svg>