<?xml version="1.0" encoding="UTF-8" standalone="no"?>
<svg
   xmlns:dc="http://purl.org/dc/elements/1.1/"
   xmlns:cc="http://creativecommons.org/ns#"
   xmlns:rdf="http://www.w3.org/1999/02/22-rdf-syntax-ns#"
   xmlns:svg="http://www.w3.org/2000/svg"
   xmlns="http://www.w3.org/2000/svg"
   viewBox="0 0 360.51868 130.8416"
   height="130.8416"
   width="360.51868"
   xml:space="preserve"
   id="svg2"
   version="1.1"><metadata
     id="metadata8"><rdf:RDF><cc:Work
         rdf:about=""><dc:format>image/svg+xml</dc:format><dc:type
           rdf:resource="http://purl.org/dc/dcmitype/StillImage" /></cc:Work></rdf:RDF></metadata><defs
     id="defs6"><clipPath
       id="clipPath18"
       clipPathUnits="userSpaceOnUse"><path
         id="path16"
         d="M 0,98.131 H 270.389 V 0 H 0 Z" /></clipPath></defs><g
     transform="matrix(1.3333333,0,0,-1.3333333,0,130.8416)"
     id="g10"><g
       id="g12"><g
         clip-path="url(#clipPath18)"
         id="g14"><g
           transform="translate(213.4046,55.4845)"
           id="g20"><path
             id="path22"
             style="fill:#ffffff;fill-opacity:1;fill-rule:nonzero;stroke:none"
             d="M 0,0 C -1.19,7.851 -10.694,14.72 -19.445,14.23 -28.503,13.722 -37.664,6.746 -37.987,0 Z m -38.312,-9.19 c 0.194,-1.162 0.29,-2.079 0.503,-2.967 2.027,-8.444 8.555,-14.05 17.237,-14.715 7.578,-0.58 13.554,2.349 17.964,8.501 2.179,3.04 5.697,3.493 8.537,1.056 1.629,-1.399 1.821,-3.209 0.523,-4.945 -0.691,-0.922 -1.404,-1.826 -2.075,-2.761 -2.878,-4.014 -6.715,-6.67 -11.36,-8.297 -7.56,-2.649 -15.213,-2.979 -22.717,-0.249 -10.108,3.677 -16.128,11.065 -17.841,21.713 -1.048,6.522 -0.44,12.951 2.633,18.906 4.323,8.372 11.108,13.598 20.504,15.057 6.243,0.97 12.402,0.372 18.156,-2.369 C 1.963,15.828 6.952,9.249 8.878,0.4 9.401,-1.997 9.569,-4.477 9.814,-6.927 9.966,-8.454 9.27,-9.158 7.726,-9.219 7.015,-9.247 6.301,-9.192 5.588,-9.191 -8.396,-9.189 -22.379,-9.19 -36.363,-9.19 Z" /></g><g
           transform="translate(150.7513,55.671)"
           id="g24"><path
             id="path26"
             style="fill:#ffffff;fill-opacity:1;fill-rule:nonzero;stroke:none"
             d="M 0,0 C -1.247,7.79 -10.418,14.43 -19.363,14.191 -28.115,13.958 -37.281,7.025 -38.009,0 Z m -38.322,-9.184 c 0.121,-0.838 0.188,-1.419 0.29,-1.993 1.654,-9.272 9.271,-15.748 18.675,-15.859 7.116,-0.085 12.694,2.845 16.785,8.642 2.191,3.108 6.1,3.446 8.791,0.748 1.348,-1.351 1.465,-3.016 0.312,-4.593 -0.55,-0.752 -1.142,-1.474 -1.672,-2.24 -3.106,-4.497 -7.303,-7.448 -12.491,-9.144 -7.554,-2.469 -15.154,-2.727 -22.544,0.163 -10.536,4.119 -16.375,12.072 -17.597,23.338 -0.582,5.375 -0.054,10.669 2.191,15.609 4.275,9.407 11.434,15.196 21.832,16.603 5.524,0.747 10.983,0.319 16.145,-1.831 C 1.597,16.426 7.04,9.405 9.021,-0.296 9.467,-2.484 9.586,-4.747 9.743,-6.984 9.871,-8.809 9.434,-9.202 7.559,-9.207 c -3.344,-0.008 -6.688,0.02 -10.032,0.022 -11.183,0.003 -22.366,0.001 -33.549,0.001 z" /></g><g
           transform="translate(236.4978,49.0616)"
           id="g28"><path
             id="path30"
             style="fill:#ffffff;fill-opacity:1;fill-rule:nonzero;stroke:none"
             d="m 0,0 c 0.497,-0.059 0.871,-0.142 1.246,-0.142 4.215,-0.007 8.431,-0.037 12.646,0.023 1.191,0.017 2.428,0.145 3.558,0.501 3.923,1.232 6.977,3.517 7.955,7.733 1.657,7.135 -3.577,13.656 -10.913,13.708 -4.324,0.031 -8.649,0.013 -12.974,0.008 -0.477,0 -0.954,-0.064 -1.518,-0.105 z m 15.271,-6.97 c 0.665,-0.617 1.077,-1.027 1.517,-1.403 4.881,-4.164 9.766,-8.324 14.649,-12.485 0.334,-0.285 0.678,-0.558 0.993,-0.864 1.814,-1.764 1.953,-4.379 0.338,-6.215 -1.561,-1.773 -4.154,-2.054 -6.064,-0.484 -3.388,2.786 -6.697,5.667 -10.037,8.512 C 11.907,-15.856 7.151,-11.8 2.391,-7.747 1.95,-7.372 1.492,-7.015 0.742,-6.405 0.71,-7.411 0.672,-8.039 0.672,-8.667 0.668,-20.184 0.67,-31.699 0.669,-43.216 c 0,-0.549 0.018,-1.098 -0.021,-1.644 -0.174,-2.508 -2.121,-4.286 -4.575,-4.199 -2.403,0.085 -4.137,1.871 -4.222,4.361 -0.02,0.548 -0.006,1.096 -0.006,1.644 -0.001,22.704 0,45.408 -0.001,68.112 0,0.713 -0.007,1.426 -0.013,2.139 -0.012,1.589 0.216,1.882 1.727,1.924 2.082,0.058 4.165,0.067 6.248,0.072 5.045,0.011 10.099,-0.202 15.13,0.056 8.414,0.431 17.838,-6.424 18.73,-16.284 0.808,-8.927 -5.219,-17.31 -14.27,-19.09 -1.264,-0.248 -2.525,-0.517 -4.125,-0.845" /></g><g
           transform="translate(88.4807,46.1652)"
           id="g32"><path
             id="path34"
             style="fill:#ffffff;fill-opacity:1;fill-rule:nonzero;stroke:none"
             d="m 0,0 h -24.591 c -0.033,-0.722 -0.086,-1.362 -0.086,-2.003 -0.007,-6.305 0.004,-12.609 -0.014,-18.913 -0.003,-0.76 -0.023,-1.557 -0.245,-2.271 -0.582,-1.875 -2.572,-3.144 -4.452,-2.96 -2.13,0.207 -3.8,1.78 -4.079,3.878 -0.065,0.486 -0.046,0.985 -0.046,1.478 -0.002,22.477 -0.006,44.954 0.014,67.43 0,0.861 0.083,1.773 0.371,2.574 0.69,1.923 2.679,2.993 4.75,2.707 1.893,-0.26 3.469,-1.92 3.657,-3.89 0.056,-0.599 0.038,-1.205 0.038,-1.808 0.002,-11.567 0,-23.135 0.006,-34.702 0,-0.699 0.057,-1.397 0.085,-2.05 1.467,-0.381 22.876,-0.402 24.503,-0.025 0.028,0.542 0.084,1.128 0.085,1.714 0.007,5.098 0.004,10.197 0.005,15.295 0,0.493 -0.018,0.989 0.02,1.48 0.172,2.263 1.94,3.969 4.195,4.066 2.298,0.1 4.266,-1.554 4.562,-3.86 0.063,-0.486 0.046,-0.985 0.046,-1.478 0.002,-15.788 0.002,-31.577 0,-47.366 0,-0.492 0.016,-0.99 -0.038,-1.478 -0.258,-2.294 -2.257,-4.062 -4.483,-3.99 -2.293,0.073 -4.13,1.862 -4.284,4.187 -0.032,0.491 -0.018,0.986 -0.018,1.479 C 0,-14.366 0,-8.226 0,-2.086 Z" /></g><g
           transform="translate(24.9583,19.7823)"
           id="g36"><path
             id="path38"
             style="fill:#ffffff;fill-opacity:1;fill-rule:nonzero;stroke:none"
             d="m 0,0 c -5.878,0.11 -11.417,1.387 -16.483,4.437 -2.175,1.31 -4.169,2.862 -5.772,4.838 -0.822,1.014 -1.571,2.121 -2.159,3.284 -0.97,1.918 -0.635,3.443 0.941,4.888 1.746,1.602 4.132,2.321 6.444,0.683 1.103,-0.781 2.057,-1.788 3.012,-2.758 0.883,-0.895 1.633,-1.921 2.518,-2.814 2.693,-2.72 6.02,-4.168 9.783,-4.569 3.512,-0.373 7.032,-0.324 10.389,0.932 1.417,0.53 2.838,1.226 4.035,2.139 2.887,2.198 2.995,5.85 0.192,8.18 -1.321,1.098 -2.931,1.926 -4.526,2.601 -3.987,1.687 -8.126,2.926 -12.337,3.964 -3.396,0.837 -6.747,1.875 -10.084,2.931 -1.294,0.41 -2.519,1.067 -3.735,1.691 -3.227,1.655 -4.956,4.367 -5.477,7.913 -1.042,7.103 1.671,12.75 8.109,15.923 9.811,4.834 19.704,5.165 29.415,-0.356 1.835,-1.044 3.479,-2.466 5.083,-3.862 1.205,-1.049 1.997,-2.459 2.467,-4.018 0.784,-2.594 -0.529,-3.933 -2.782,-4.433 -2.003,-0.444 -3.798,0.17 -5.197,1.741 -0.254,0.287 -0.503,0.582 -0.72,0.897 -2.337,3.39 -5.579,5.31 -9.599,6.054 -4.027,0.746 -7.987,0.557 -11.807,-0.908 -1.405,-0.539 -2.784,-1.346 -3.931,-2.319 -2.699,-2.291 -2.679,-5.424 -0.103,-7.842 1.682,-1.578 3.745,-2.481 5.936,-3.044 4.822,-1.239 9.667,-2.383 14.495,-3.596 3.091,-0.775 6.09,-1.839 8.89,-3.364 3.559,-1.94 6.231,-4.676 7.095,-8.791 C 25.146,15.396 24.119,11.006 20.185,7.414 15.778,3.391 10.644,1.077 4.745,0.408 3.168,0.229 1.582,0.134 0,0" /></g></g></g></g></svg>