<?xml version="1.0" encoding="UTF-8" standalone="no"?>
<svg
   xmlns:dc="http://purl.org/dc/elements/1.1/"
   xmlns:cc="http://creativecommons.org/ns#"
   xmlns:rdf="http://www.w3.org/1999/02/22-rdf-syntax-ns#"
   xmlns:svg="http://www.w3.org/2000/svg"
   xmlns="http://www.w3.org/2000/svg"
   viewBox="0 0 856.92267 193.504"
   height="193.504"
   width="856.92267"
   xml:space="preserve"
   id="svg2"
   version="1.1"><metadata
     id="metadata8"><rdf:RDF><cc:Work
         rdf:about=""><dc:format>image/svg+xml</dc:format><dc:type
           rdf:resource="http://purl.org/dc/dcmitype/StillImage" /></cc:Work></rdf:RDF></metadata><defs
     id="defs6"><clipPath
       id="clipPath18"
       clipPathUnits="userSpaceOnUse"><path
         id="path16"
         d="M 0,145.128 H 642.692 V 0 H 0 Z" /></clipPath></defs><g
     transform="matrix(1.3333333,0,0,-1.3333333,0,193.504)"
     id="g10"><g
       id="g12"><g
         clip-path="url(#clipPath18)"
         id="g14"><g
           transform="translate(72.5638,139.6621)"
           id="g20"><path
             id="path22"
             style="fill:#4cc6e2;fill-opacity:1;fill-rule:nonzero;stroke:none"
             d="M 0,0 C 9.456,0 17.48,-6.245 20.167,-14.826 V 5.466 H -20.167 V -14.826 C -17.48,-6.245 -9.456,0 0,0" /></g><g
           transform="translate(52.3968,102.4468)"
           id="g24"><path
             id="path26"
             style="fill:#4cc6e2;fill-opacity:1;fill-rule:nonzero;stroke:none"
             d="M 0,0 C 3.032,-0.73 5.812,-1.331 8.245,-1.812 8.573,-1.877 8.905,-1.923 9.234,-1.983 4.879,0.662 1.551,4.835 0,9.788 Z" /></g><g
           transform="translate(83.4974,100.4639)"
           id="g28"><path
             id="path30"
             style="fill:#4cc6e2;fill-opacity:1;fill-rule:nonzero;stroke:none"
             d="m 0,0 c 0.329,0.06 0.661,0.105 0.988,0.17 2.434,0.482 5.214,1.082 8.245,1.813 v 9.788 C 7.683,6.818 4.355,2.645 0,0" /></g><g
           transform="translate(90.1849,10.6782)"
           id="g32"><path
             id="path34"
             style="fill:#4cc6e2;fill-opacity:1;fill-rule:nonzero;stroke:none"
             d="M 0,0 C -9.679,19.2 -15.228,25.654 -17.63,27.781 -20,25.67 -25.552,19.224 -35.242,0 c -0.631,-1.251 -1.507,-2.31 -2.546,-3.146 v -7.533 H 2.546 v 7.533 C 1.507,-2.31 0.63,-1.251 0,0" /></g><g
           transform="translate(125.3714,92.731)"
           id="g36"><path
             id="path38"
             style="fill:#4cc6e2;fill-opacity:1;fill-rule:nonzero;stroke:none"
             d="M 0,0 C -1.947,-1.773 -3.867,-3.465 -5.746,-5.064 -16.2,-13.965 -22.11,-27.017 -22.044,-40.334 h 41.8 l 0,40.334 z" /></g><g
           transform="translate(25.4681,87.6958)"
           id="g40"><path
             id="path42"
             style="fill:#4cc6e2;fill-opacity:1;fill-rule:nonzero;stroke:none"
             d="M 0,0 C -1.868,1.59 -3.776,3.273 -5.711,5.035 H -25.468 V -35.299 H 16.313 C 16.352,-21.943 10.444,-8.897 0,0" /></g><g
           transform="translate(124.5209,106.6055)"
           id="g44"><path
             id="path46"
             style="fill:#ffffff;fill-opacity:1;fill-rule:nonzero;stroke:none"
             d="m 0,0 c -14.845,-6.22 -29.089,-9.778 -38.896,-11.72 -8.624,-1.708 -17.498,-1.708 -26.121,0 -9.808,1.942 -24.052,5.5 -38.897,11.72 -2.545,1.066 -4.689,-2.18 -2.704,-4.098 3.286,-3.175 7.187,-6.791 11.366,-10.35 13.91,-11.849 20.734,-30.153 17.65,-48.164 -0.092,-0.543 -0.191,-1.094 -0.296,-1.65 l -3.686,-26.921 c -0.551,-4.025 4.944,-5.734 6.772,-2.106 7.126,14.137 16.527,30.319 22.855,31.834 6.329,-1.515 15.728,-17.697 22.854,-31.834 1.83,-3.628 7.325,-1.919 6.773,2.106 l -3.686,26.921 c -0.128,0.68 -0.247,1.35 -0.358,2.012 -3.001,17.912 3.851,36 17.68,47.774 4.191,3.568 8.103,7.195 11.398,10.378 C 4.688,-2.18 2.545,1.066 0,0" /></g><g
           transform="translate(72.5638,133.8008)"
           id="g48"><path
             id="path50"
             style="fill:#ffffff;fill-opacity:1;fill-rule:nonzero;stroke:none"
             d="m 0,0 c -8.322,0 -15.266,-6.944 -15.266,-15.266 0,-8.321 6.944,-15.265 15.266,-15.265 8.322,0 15.266,6.944 15.266,15.265 C 15.266,-6.944 8.322,0 0,0" /></g><g
           transform="translate(192.346,87.2529)"
           id="g52"><path
             id="path54"
             style="fill:#4cc6e2;fill-opacity:1;fill-rule:nonzero;stroke:none"
             d="m 0,0 c -5.48,0.051 -9.608,4.629 -9.608,10.645 0,6.398 3.86,10.697 9.608,10.697 4.138,0 6.943,-1.794 8.338,-5.338 h 8.008 C 14.655,25.295 6.512,28.602 0,28.602 c -8.637,0 -17.957,-5.623 -18.008,-17.959 0.051,-12.299 9.31,-17.903 17.891,-17.903 h 0.115 c 6.961,0 14.918,3.453 16.516,13.115 H 8.532 C 7.409,2.183 4.233,0 0,0" /></g><g
           transform="translate(224.2884,115.44)"
           id="g56"><path
             id="path58"
             style="fill:#4cc6e2;fill-opacity:1;fill-rule:nonzero;stroke:none"
             d="m 0,0 h -8.297 v -35.137 h 2.482 l 19.123,18.693 v -18.639 h 8.401 V 0.153 H 19.175 L 0,-18.588 Z" /></g><g
           transform="translate(286.7684,87.3833)"
           id="g60"><path
             id="path62"
             style="fill:#4cc6e2;fill-opacity:1;fill-rule:nonzero;stroke:none"
             d="m 0,0 c -4.665,0 -9.686,3.273 -9.686,10.461 0,7.137 5.021,10.385 9.686,10.385 4.664,0 9.685,-3.248 9.685,-10.385 C 9.685,3.273 4.664,0 0,0 m 17.982,10.461 c 0,12.588 -9.355,18.322 -18.045,18.322 -6.638,0 -15.167,-3.515 -17.362,-13.422 l -0.105,-0.466 h -5.783 v 13.162 h -8.296 V -7.027 h 8.296 v 14.56 h 5.557 l 0.077,-0.504 C -16.1,-3.194 -7.642,-7.772 0.04,-7.772 c 8.641,0 17.942,5.706 17.942,18.233" /></g><g
           transform="translate(338.7357,114.8154)"
           id="g64"><path
             id="path66"
             style="fill:#4cc6e2;fill-opacity:1;fill-rule:nonzero;stroke:none"
             d="m 0,0 v 0.625 h -8.662 l -5.802,-9.432 h -0.925 l -0.074,0.119 -5.676,9.313 H -29.85 V 0 l 10.584,-15.825 -0.09,-0.139 -11.738,-17.866 v -0.629 h 9.065 l 6.632,11.398 h 0.994 l 6.631,-11.398 h 9.068 v 0.627 l -11.883,18.005 z" /></g><g
           transform="translate(361.0072,87.3833)"
           id="g68"><path
             id="path70"
             style="fill:#4cc6e2;fill-opacity:1;fill-rule:nonzero;stroke:none"
             d="m 0,0 c -4.665,0 -9.686,3.273 -9.686,10.461 0,7.137 5.021,10.385 9.686,10.385 4.664,0 9.686,-3.248 9.686,-10.385 C 9.686,3.273 4.664,0 0,0 m 17.984,10.461 c 0,12.517 -9.336,18.218 -18.009,18.218 -8.672,0 -18.008,-5.701 -18.008,-18.218 0,-12.542 9.336,-18.254 18.008,-18.254 8.673,0 18.009,5.712 18.009,18.254" /></g><g
           transform="translate(401.6517,87.4092)"
           id="g72"><path
             id="path74"
             style="fill:#4cc6e2;fill-opacity:1;fill-rule:nonzero;stroke:none"
             d="m 0,0 h -8.001 v 7.351 h 7.949 C 2.192,7.351 3.364,5.487 3.364,3.644 3.364,1.89 2.311,0 0,0 m -8.001,20.924 h 6.396 c 2.229,0 3.396,-1.777 3.396,-3.534 0,-0.902 -0.293,-1.747 -0.829,-2.384 -0.615,-0.734 -1.484,-1.12 -2.517,-1.12 H -8.001 Z M 11.325,3.809 c 0,3.157 -1.393,5.536 -4.03,6.876 l -0.807,0.412 0.699,0.575 c 1.552,1.277 2.635,3.665 2.635,5.811 0,5.913 -4.701,10.548 -10.703,10.548 H -15.78 V -7.053 H 0.622 c 6.446,0 10.648,4.264 10.703,10.862" /></g><g
           transform="translate(448.3841,96.7866)"
           id="g76"><path
             id="path78"
             style="fill:#4cc6e2;fill-opacity:1;fill-rule:nonzero;stroke:none"
             d="m 0,0 h -7.226 v 11.547 h 0.592 c 0.52,0 1.049,0.005 1.587,0.009 l 0.56,0.003 c 1.495,0.011 3.033,0.023 4.501,-0.012 C 3.124,11.519 4.531,8.565 4.518,5.832 4.503,2.934 2.947,0 0,0 M 0.049,18.653 H -15.314 V -16.43 h 8.088 v 9.275 h 7.277 c 8.522,0 12.416,6.668 12.426,12.861 C 12.483,11.924 8.6,18.627 0.049,18.653" /></g><g
           transform="translate(479.6742,102.0733)"
           id="g80"><path
             id="path82"
             style="fill:#4cc6e2;fill-opacity:1;fill-rule:nonzero;stroke:none"
             d="m 0,0 -0.07,0.135 -6.771,13.232 h -9.405 v -0.653 l 12.304,-22.313 -0.056,-0.116 -5.72,-11.748 v -0.254 h 9.037 L 16.3,12.698 v 0.669 H 7.218 L 1.002,0 Z" /></g><g
           transform="translate(516.7162,87.2529)"
           id="g84"><path
             id="path86"
             style="fill:#4cc6e2;fill-opacity:1;fill-rule:nonzero;stroke:none"
             d="m 0,0 c -5.48,0.051 -9.608,4.629 -9.608,10.645 0,6.398 3.861,10.697 9.608,10.697 4.138,0 6.943,-1.794 8.339,-5.338 h 8.01 C 14.655,25.295 6.513,28.602 0,28.602 c -8.637,0 -17.956,-5.623 -18.007,-17.959 0.051,-12.299 9.31,-17.903 17.891,-17.903 h 0.114 c 6.962,0 14.918,3.453 16.517,13.115 H 8.532 C 7.409,2.183 4.233,0 0,0" /></g><g
           transform="translate(551.8597,115.9058)"
           id="g88"><path
             id="path90"
             style="fill:#4cc6e2;fill-opacity:1;fill-rule:nonzero;stroke:none"
             d="m 0,0 -16.108,-34.925 v -0.624 h 8.087 l 9.606,22.133 9.718,-22.133 h 8.087 v 0.622 L 3.229,0 Z" /></g><g
           transform="translate(586.223,91.6587)"
           id="g92"><path
             id="path94"
             style="fill:#4cc6e2;fill-opacity:1;fill-rule:nonzero;stroke:none"
             d="M 0,0 4.986,11.612 10.101,0 Z m 3.406,24.247 -16.108,-34.925 v -0.624 h 8.097 l 2.124,4.557 h 15.053 l 2.125,-4.557 h 8.099 v 0.622 L 6.636,24.247 Z" /></g><g
           transform="translate(634.3959,102.2783)"
           id="g96"><path
             id="path98"
             style="fill:#4cc6e2;fill-opacity:1;fill-rule:nonzero;stroke:none"
             d="m 0,0 h -12.374 v 13.162 h -8.297 v -35.084 h 8.297 v 14.56 H 0 v -14.56 h 8.297 v 35.084 l -8.297,0 z" /></g><g
           transform="translate(200.8729,64.8091)"
           id="g100"><path
             id="path102"
             style="fill:#4cc6e2;fill-opacity:1;fill-rule:nonzero;stroke:none"
             d="m 0,0 h -8.296 v -27.718 h -9.942 V 0 h -8.297 V -35.083 H 18.236 V 0 H 9.939 V -27.718 H 0 Z" /></g><g
           transform="translate(240.1639,51.4429)"
           id="g104"><path
             id="path106"
             style="fill:#4cc6e2;fill-opacity:1;fill-rule:nonzero;stroke:none"
             d="m 0,0 -0.07,0.136 -6.768,13.23 h -9.408 V 12.714 L -3.942,-9.597 -3.998,-9.713 -9.718,-21.46 v -0.257 h 9.04 L 16.3,12.698 v 0.668 H 7.22 L 1.002,0 Z" /></g><g
           transform="translate(278.1595,49.0786)"
           id="g108"><path
             id="path110"
             style="fill:#4cc6e2;fill-opacity:1;fill-rule:nonzero;stroke:none"
             d="m 0,0 -14.273,15.836 h -2.56 v -35.189 h 8.296 v 17.06 l 8.514,-8.977 H 0.505 L 9.07,-2.3 v -17.053 h 8.297 V 15.836 H 14.904 L 0.184,-0.205 Z" /></g><g
           transform="translate(312.7811,41.0288)"
           id="g112"><path
             id="path114"
             style="fill:#4cc6e2;fill-opacity:1;fill-rule:nonzero;stroke:none"
             d="M 0,0 4.986,11.611 10.1,0 Z m 3.404,24.247 -16.109,-34.925 v -0.625 h 8.099 l 2.125,4.56 h 15.053 l 2.125,-4.56 h 8.096 v 0.622 L 6.633,24.247 Z" /></g><g
           transform="translate(362.6165,39.9546)"
           id="g116"><path
             id="path118"
             style="fill:#4cc6e2;fill-opacity:1;fill-rule:nonzero;stroke:none"
             d="M 0,0 V 14.666 L 0.615,14.641 C 6.116,14.427 8.905,11.978 8.905,7.364 8.905,2.805 6.121,0.338 0.627,0.037 Z M -7.413,0 -8.04,0.037 c -5.496,0.301 -8.28,2.768 -8.28,7.327 0,4.614 2.789,7.063 8.292,7.277 l 0.615,0.025 z m 24.615,7.364 c 0,9.318 -5.543,14.227 -16.473,14.59 l -0.573,0.019 v 3.038 h -7.725 v -3.038 l -0.574,-0.019 c -10.931,-0.363 -16.474,-5.272 -16.474,-14.59 0,-9.382 5.561,-14.326 16.528,-14.691 l 0.57,-0.02 v -3.038 h 7.624 v 3.038 l 0.571,0.02 c 10.965,0.365 16.526,5.309 16.526,14.691" /></g><g
           transform="translate(402.5062,36.7534)"
           id="g120"><path
             id="path122"
             style="fill:#4cc6e2;fill-opacity:1;fill-rule:nonzero;stroke:none"
             d="m 0,0 c -4.664,0 -9.685,3.273 -9.685,10.463 0,7.137 5.021,10.385 9.685,10.385 4.665,0 9.686,-3.248 9.686,-10.385 C 9.686,3.273 4.665,0 0,0 m 17.982,10.463 c 0,12.514 -9.336,18.215 -18.007,18.215 -8.672,0 -18.008,-5.701 -18.008,-18.215 0,-12.541 9.336,-18.254 18.008,-18.254 8.671,0 18.007,5.713 18.007,18.254" /></g><g
           transform="translate(443.1507,36.7788)"
           id="g124"><path
             id="path126"
             style="fill:#4cc6e2;fill-opacity:1;fill-rule:nonzero;stroke:none"
             d="m 0,0 h -8.003 v 7.351 h 7.949 C 2.19,7.351 3.364,5.487 3.364,3.644 3.364,1.89 2.312,0 0,0 m -8.003,20.927 h 6.396 c 2.229,0 3.397,-1.778 3.397,-3.537 0,-0.904 -0.294,-1.749 -0.827,-2.383 -0.618,-0.735 -1.489,-1.121 -2.519,-1.121 H -8.003 Z M 7.293,10.688 6.484,11.095 7.187,11.673 c 1.55,1.276 2.633,3.667 2.633,5.81 0,5.913 -4.701,10.547 -10.703,10.547 H -15.78 V -7.053 H 0.622 c 6.447,0 10.648,4.264 10.701,10.863 0,3.157 -1.392,5.535 -4.03,6.878" /></g><g
           transform="translate(469.9632,64.8091)"
           id="g128"><path
             id="path130"
             style="fill:#4cc6e2;fill-opacity:1;fill-rule:nonzero;stroke:none"
             d="m 0,0 h -8.297 v -35.137 h 2.484 l 19.121,18.694 v -18.64 H 21.71 V 0.156 H 19.177 L 0,-18.587 Z" /></g><g
           transform="translate(518.2963,49.9917)"
           id="g132"><path
             id="path134"
             style="fill:#4cc6e2;fill-opacity:1;fill-rule:nonzero;stroke:none"
             d="m 0,0 h -2.407 c -7.654,0 -8.262,4.748 -8.262,10.955 v 3.862 h -8.348 v -3.862 c 0,-13.021 4.952,-18.578 16.557,-18.578 H 0 V -20.266 H 8.243 V 14.817 H 0 Z" /></g></g></g></g></svg>