<?xml version="1.0" encoding="UTF-8" standalone="no"?>
<svg
   xmlns:dc="http://purl.org/dc/elements/1.1/"
   xmlns:cc="http://creativecommons.org/ns#"
   xmlns:rdf="http://www.w3.org/1999/02/22-rdf-syntax-ns#"
   xmlns:svg="http://www.w3.org/2000/svg"
   xmlns="http://www.w3.org/2000/svg"
   viewBox="0 0 816 816"
   height="816"
   width="816"
   xml:space="preserve"
   id="svg2"
   version="1.1"><metadata
     id="metadata8"><rdf:RDF><cc:Work
         rdf:about=""><dc:format>image/svg+xml</dc:format><dc:type
           rdf:resource="http://purl.org/dc/dcmitype/StillImage" /></cc:Work></rdf:RDF></metadata><defs
     id="defs6"><clipPath
       id="clipPath18"
       clipPathUnits="userSpaceOnUse"><path
         id="path16"
         d="M 0,612 H 612 V 0 H 0 Z" /></clipPath></defs><g
     transform="matrix(1.3333333,0,0,-1.3333333,0,816)"
     id="g10"><g
       id="g12"><g
         clip-path="url(#clipPath18)"
         id="g14"><g
           transform="translate(132.707,88.9769)"
           id="g20"><path
             id="path22"
             style="fill:rgb(75,198,227);;fill-opacity:1;fill-rule:nonzero;stroke:none"
             d="m 0,0 c 1.59,22.624 14.022,99.169 98.374,142.104 21.106,-16.408 46.838,-25.732 74.955,-25.732 28.117,0 54.644,10.119 75.75,26.527 C 332.635,99.964 345.863,25.009 348.248,0.795 300.615,-37.442 239.755,-60.86 174.196,-60.86 107.771,-60.932 47.633,-38.308 0,0 m 79.653,238.093 c 0,51.536 42.14,93.676 93.676,93.676 51.536,0 93.676,-42.14 93.676,-93.676 0,-51.536 -42.14,-93.676 -93.676,-93.676 -51.536,0 -93.676,42.14 -93.676,93.676 M -104.59,216.987 c 0,153.018 124.901,277.919 277.919,277.919 153.018,0 277.919,-124.901 277.919,-277.919 0,-74.955 -29.635,-142.826 -78.063,-192.845 -7.806,36.719 -31.225,99.17 -103.072,139.718 16.408,20.311 25.732,46.838 25.732,74.955 0,67.149 -54.644,121.793 -121.793,121.793 -67.149,0 -121.793,-54.644 -121.793,-121.793 0,-28.117 10.119,-53.849 25.732,-74.955 C 5.494,123.312 -17.925,60.86 -24.937,24.142 -74.16,73.365 -104.59,142.032 -104.59,216.987 m 583.883,0 c 0,168.631 -137.405,306.036 -306.036,306.036 -168.631,0 -305.964,-137.405 -305.964,-306.036 0,-92.881 42.14,-176.437 107.698,-232.599 0.795,-0.795 1.59,-1.59 3.108,-2.313 53.054,-44.525 120.998,-71.052 195.953,-71.052 73.365,0 141.309,26.527 194.363,69.462 3.108,0.795 5.493,3.108 7.011,5.493 63.318,56.957 103.867,138.923 103.867,231.009" /></g></g></g></g></svg>